<svg width="100%" height="100%" viewBox="0 0 16 16" fill="none" xmlns="http://www.w3.org/2000/svg">
<path class="use-design-system-fill-color" fill-rule="evenodd" clip-rule="evenodd" d="M7.99496 1.32996C4.31398 1.32996 1.32996 4.31398 1.32996 7.99496C1.32996 11.6759 4.31398 14.66 7.99496 14.66C11.6759 14.66 14.66 11.6759 14.66 7.99496C14.66 4.31398 11.6759 1.32996 7.99496 1.32996ZM10.2411 5.74878C10.4777 5.98541 10.4777 6.36905 10.2411 6.60567L8.85184 7.99495L10.2411 9.38424C10.4777 9.62086 10.4777 10.0045 10.2411 10.2411C10.0045 10.4777 9.62086 10.4777 9.38424 10.2411L7.99495 8.85184L6.60567 10.2411C6.36905 10.4777 5.98541 10.4777 5.74878 10.2411C5.51216 10.0045 5.51216 9.62086 5.74878 9.38424L7.13807 7.99495L5.74878 6.60567C5.51216 6.36905 5.51216 5.98541 5.74878 5.74878C5.98541 5.51216 6.36905 5.51216 6.60567 5.74878L7.99495 7.13807L9.38424 5.74878C9.62086 5.51216 10.0045 5.51216 10.2411 5.74878Z" fill="{props.color}"/>
</svg>
