<svg width="100%" height="100%" viewBox="0 0 16 16" fill="none" xmlns="http://www.w3.org/2000/svg">
<path class="use-design-system-fill-color" d="M7.99496 4.66246C7.81819 4.66246 7.64866 4.73268 7.52367 4.85767C7.39868 4.98266 7.32846 5.15219 7.32846 5.32896V7.99495C7.32846 8.17172 7.39868 8.34125 7.52367 8.46624C7.64866 8.59123 7.81819 8.66145 7.99496 8.66145C8.17172 8.66145 8.34125 8.59123 8.46624 8.46624C8.59124 8.34125 8.66146 8.17172 8.66146 7.99495V5.32896C8.66146 5.15219 8.59124 4.98266 8.46624 4.85767C8.34125 4.73268 8.17172 4.66246 7.99496 4.66246ZM8.60814 10.4077C8.59355 10.3652 8.57338 10.3249 8.54815 10.2877L8.46817 10.1877C8.37445 10.0953 8.25543 10.0326 8.12613 10.0077C7.99684 9.98279 7.86306 9.99673 7.74169 10.0478C7.66092 10.0815 7.58653 10.1289 7.52174 10.1877C7.45997 10.25 7.4111 10.3239 7.37793 10.4051C7.34476 10.4863 7.32795 10.5732 7.32846 10.661C7.32951 10.7481 7.34763 10.8341 7.38178 10.9142C7.41171 10.9969 7.45947 11.072 7.52167 11.1342C7.58386 11.1964 7.65898 11.2442 7.74169 11.2741C7.82147 11.3094 7.90773 11.3276 7.99496 11.3276C8.08218 11.3276 8.16845 11.3094 8.24823 11.2741C8.33094 11.2442 8.40605 11.1964 8.46825 11.1342C8.53045 11.072 8.5782 10.9969 8.60814 10.9142C8.64229 10.8341 8.6604 10.7481 8.66146 10.661C8.66473 10.6166 8.66473 10.572 8.66146 10.5277C8.64998 10.4852 8.632 10.4447 8.60814 10.4077ZM7.99496 1.32996C6.67675 1.32996 5.38814 1.72085 4.29208 2.45321C3.19603 3.18557 2.34176 4.2265 1.8373 5.44437C1.33284 6.66224 1.20085 8.00235 1.45803 9.29523C1.7152 10.5881 2.34998 11.7757 3.28209 12.7078C4.21421 13.6399 5.4018 14.2747 6.69468 14.5319C7.98756 14.7891 9.32767 14.6571 10.5455 14.1526C11.7634 13.6482 12.8043 12.7939 13.5367 11.6978C14.2691 10.6018 14.66 9.31317 14.66 7.99495C14.66 7.11969 14.4876 6.253 14.1526 5.44437C13.8177 4.63574 13.3267 3.90099 12.7078 3.28209C12.0889 2.66319 11.3542 2.17225 10.5455 1.8373C9.73691 1.50235 8.87022 1.32996 7.99496 1.32996ZM7.99496 13.327C6.94039 13.327 5.9095 13.0142 5.03266 12.4283C4.15581 11.8425 3.4724 11.0097 3.06883 10.0354C2.66527 9.06113 2.55968 7.98904 2.76541 6.95473C2.97115 5.92043 3.47897 4.97036 4.22466 4.22466C4.97036 3.47897 5.92043 2.97115 6.95474 2.76541C7.98904 2.55967 9.06113 2.66526 10.0354 3.06883C11.0097 3.4724 11.8425 4.15581 12.4284 5.03265C13.0142 5.9095 13.327 6.94038 13.327 7.99495C13.327 9.40909 12.7652 10.7653 11.7653 11.7652C10.7653 12.7652 9.40909 13.327 7.99496 13.327Z" fill="{props.color}"/>
</svg>
