<svg width="100%" height="100%" viewBox="0 0 16 16" fill="none" xmlns="http://www.w3.org/2000/svg">
<path class="use-design-system-fill-color" d="M7.29335 4.05329C7.5272 4.01745 7.76345 3.99962 8.00002 3.99996C10.12 3.99996 12.1134 5.52663 13.2734 7.99996C13.0959 8.37636 12.8956 8.74149 12.6734 9.09329C12.6028 9.2025 12.5657 9.32995 12.5667 9.45996C12.5682 9.60545 12.6172 9.74646 12.7063 9.86148C12.7954 9.97649 12.9197 10.0592 13.0603 10.097C13.2008 10.1347 13.3498 10.1255 13.4845 10.0707C13.6193 10.0158 13.7325 9.91843 13.8067 9.79329C14.1173 9.30525 14.3871 8.7924 14.6134 8.25996C14.6491 8.17678 14.6676 8.08718 14.6676 7.99663C14.6676 7.90608 14.6491 7.81648 14.6134 7.73329C13.2667 4.60663 10.7334 2.66663 8.00002 2.66663C7.68713 2.66505 7.37475 2.69183 7.06669 2.74663C6.97914 2.76151 6.89538 2.79349 6.82019 2.84075C6.74501 2.888 6.67986 2.9496 6.62848 3.02203C6.5771 3.09446 6.54048 3.1763 6.52073 3.26288C6.50098 3.34946 6.49847 3.43908 6.51336 3.52663C6.52824 3.61418 6.56022 3.69793 6.60747 3.77312C6.65473 3.84831 6.71633 3.91346 6.78876 3.96484C6.86119 4.01622 6.94303 4.05283 7.02961 4.07258C7.11619 4.09234 7.20581 4.09484 7.29335 4.07996V4.05329ZM2.47336 1.52663C2.4112 1.46447 2.3374 1.41516 2.25619 1.38152C2.17497 1.34788 2.08793 1.33057 2.00002 1.33057C1.91212 1.33057 1.82507 1.34788 1.74386 1.38152C1.66264 1.41516 1.58885 1.46447 1.52669 1.52663C1.40115 1.65216 1.33063 1.82243 1.33063 1.99996C1.33063 2.1775 1.40115 2.34776 1.52669 2.47329L3.59336 4.53329C2.6504 5.44098 1.89993 6.52929 1.38669 7.73329C1.34998 7.8174 1.33103 7.90819 1.33103 7.99996C1.33103 8.09173 1.34998 8.18252 1.38669 8.26663C2.73336 11.3933 5.26669 13.3333 8.00002 13.3333C9.19809 13.325 10.3679 12.9683 11.3667 12.3066L13.5267 14.4733C13.5887 14.5358 13.6624 14.5854 13.7436 14.6192C13.8249 14.6531 13.912 14.6705 14 14.6705C14.088 14.6705 14.1752 14.6531 14.2564 14.6192C14.3376 14.5854 14.4114 14.5358 14.4734 14.4733C14.5358 14.4113 14.5854 14.3376 14.6193 14.2563C14.6531 14.1751 14.6706 14.088 14.6706 14C14.6706 13.912 14.6531 13.8248 14.6193 13.7436C14.5854 13.6623 14.5358 13.5886 14.4734 13.5266L2.47336 1.52663ZM6.71336 7.65329L8.34669 9.28663C8.23401 9.31894 8.11723 9.33466 8.00002 9.33329C7.6464 9.33329 7.30726 9.19282 7.05721 8.94277C6.80716 8.69272 6.66669 8.35358 6.66669 7.99996C6.66532 7.88275 6.68104 7.76597 6.71336 7.65329ZM8.00002 12C5.88002 12 3.88669 10.4733 2.73336 7.99996C3.16408 7.04913 3.7754 6.19101 4.53336 5.47329L5.71336 6.66663C5.43619 7.17249 5.33052 7.75459 5.41219 8.3256C5.49387 8.89661 5.7585 9.42574 6.16637 9.83361C6.57425 10.2415 7.10338 10.5061 7.67438 10.5878C8.24539 10.6695 8.82749 10.5638 9.33335 10.2866L10.3934 11.3333C9.66742 11.7605 8.8423 11.9904 8.00002 12Z" fill="{props.color}"/>
</svg>
