<svg width="100%" height="100%" viewBox="0 0 16 16" fill="none" xmlns="http://www.w3.org/2000/svg">
<path class="use-design-system-fill-color" d="M14.6133 7.73329C13.2667 4.60663 10.7333 2.66663 7.99998 2.66663C5.26665 2.66663 2.73332 4.60663 1.38665 7.73329C1.34994 7.8174 1.33099 7.90819 1.33099 7.99996C1.33099 8.09173 1.34994 8.18251 1.38665 8.26663C2.73332 11.3933 5.26665 13.3333 7.99998 13.3333C10.7333 13.3333 13.2667 11.3933 14.6133 8.26663C14.65 8.18251 14.669 8.09173 14.669 7.99996C14.669 7.90819 14.65 7.8174 14.6133 7.73329ZM7.99998 12C5.88665 12 3.88665 10.4733 2.73332 7.99996C3.88665 5.52663 5.88665 3.99996 7.99998 3.99996C10.1133 3.99996 12.1133 5.52663 13.2667 7.99996C12.1133 10.4733 10.1133 12 7.99998 12ZM7.99998 5.33329C7.47257 5.33329 6.95699 5.48969 6.51846 5.78271C6.07993 6.07572 5.73814 6.4922 5.5363 6.97947C5.33447 7.46674 5.28166 8.00292 5.38456 8.5202C5.48745 9.03748 5.74143 9.51264 6.11437 9.88558C6.48731 10.2585 6.96246 10.5125 7.47974 10.6154C7.99703 10.7183 8.5332 10.6655 9.02047 10.4636C9.50774 10.2618 9.92422 9.92001 10.2172 9.48148C10.5103 9.04295 10.6667 8.52738 10.6667 7.99996C10.6667 7.29272 10.3857 6.61444 9.8856 6.11434C9.3855 5.61424 8.70723 5.33329 7.99998 5.33329ZM7.99998 9.33329C7.73628 9.33329 7.47849 9.25509 7.25922 9.10858C7.03996 8.96208 6.86906 8.75384 6.76814 8.5102C6.66723 8.26657 6.64082 7.99848 6.69227 7.73984C6.74372 7.4812 6.8707 7.24362 7.05717 7.05715C7.24364 6.87068 7.48122 6.74369 7.73986 6.69225C7.9985 6.6408 8.26659 6.6672 8.51023 6.76812C8.75386 6.86904 8.9621 7.03993 9.10861 7.2592C9.25512 7.47846 9.33332 7.73625 9.33332 7.99996C9.33332 8.35358 9.19284 8.69272 8.94279 8.94277C8.69274 9.19282 8.35361 9.33329 7.99998 9.33329Z" fill="{props.color}"/>
</svg>
