<svg width="100%" height="100%" viewBox="0 0 24 24" fill="none" xmlns="http://www.w3.org/2000/svg">
<path class="use-design-system-fill-background-color" fill-rule="evenodd" clip-rule="evenodd" d="M12 3C6.99562 3 3 6.99562 3 12C3 17.0044 6.99562 21 12 21C17.0044 21 21 17.0044 21 12C21 6.99562 17.0044 3 12 3ZM0 12C0 5.37258 5.37258 0 12 0C18.6274 0 24 5.37258 24 12C24 18.6274 18.6274 24 12 24C5.37258 24 0 18.6274 0 12Z" fill="{props.backgroundColor}"/>
<path class="use-design-system-fill-color" fill-rule="evenodd" clip-rule="evenodd" d="M21 12C21 7.02944 16.9706 3 12 3V0C18.6274 0 24 5.37258 24 12H21Z" fill="{props.color}"/>
</svg>